# xmcd
#
# Track frame offsets: 
#        150
#        11950
#        25615
#        38855
#        55097
#        72587
#        93832
#        121912
#        133852
#        151712
#        172107
#        189747
#        208772
#        229225
#        239777
#        256427
#
# Disc length: 3607 seconds
#
# Revision: 0
# Processed by: cddbd v1.5.2PL0 Copyright (c) Steve Scherf et al.
# Submitted via: ExactAudioCopy v0.99pb5
#
DISCID=e60e1510
DTITLE=Finchley Boys - Everlasting TRibutes
DYEAR=1972
DGENRE=Psychedelic Rock
TTITLE0=Outcast
TTITLE1=Echoes Remains
TTITLE2=Deep Throat Blues
TTITLE3=Restrictions
TTITLE4=Suffering Servants
TTITLE5=I'm Not Like Everybody Else
TTITLE6=Finchley Boy Blues
TTITLE7=Bad When The Teardrop Falls
TTITLE8=It All Ends
TTITLE9=Who's Been Talking
TTITLE10=Swelling Waters
TTITLE11=Hooked
TTITLE12=Once I Was A Boy
TTITLE13=In The Morning
TTITLE14=Rock On Baby
TTITLE15=Colour Of My Head
EXTD=
EXTT0=
EXTT1=
EXTT2=
EXTT3=
EXTT4=
EXTT5=
EXTT6=
EXTT7=
EXTT8=
EXTT9=
EXTT10=
EXTT11=
EXTT12=
EXTT13=
EXTT14=
EXTT15=
PLAYORDER=
